<svg xmlns="http://www.w3.org/2000/svg" xmlns:xlink="http://www.w3.org/1999/xlink" version="1.1" width="256" height="256" viewBox="0 0 256 256" xml:space="preserve">
<desc>Created with Fabric.js 1.7.22</desc>
<defs>
</defs>
<g transform="translate(128 128) scale(0.72 0.72)" style="">
	<g style="stroke: none; stroke-width: 0; stroke-dasharray: none; stroke-linecap: butt; stroke-linejoin: miter; stroke-miterlimit: 10; fill: none; fill-rule: nonzero; opacity: 1;" transform="translate(-175.05 -175.05000000000004) scale(3.89 3.89)" >
	<path d="M 84.568 73.986 H 5.431 C 2.437 73.986 0 71.55 0 68.555 V 37.728 c 0 -2.995 2.437 -5.431 5.431 -5.431 h 4.723 c 0.552 0 1 0.448 1 1 s -0.448 1 -1 1 H 5.431 C 3.539 34.297 2 35.836 2 37.728 v 30.827 c 0 1.893 1.539 3.432 3.431 3.432 h 79.137 c 1.893 0 3.432 -1.539 3.432 -3.432 V 37.728 c 0 -1.892 -1.539 -3.431 -3.432 -3.431 H 71.58 c -0.553 0 -1 -0.448 -1 -1 s 0.447 -1 1 -1 h 12.988 c 2.995 0 5.432 2.437 5.432 5.431 v 30.827 C 90 71.55 87.563 73.986 84.568 73.986 z" style="stroke: none; stroke-width: 1; stroke-dasharray: none; stroke-linecap: butt; stroke-linejoin: miter; stroke-miterlimit: 10; fill: rgb(0,0,0); fill-rule: nonzero; opacity: 1;" transform=" matrix(1 0 0 1 0 0) " stroke-linecap="round" />
	<path d="M 45 23.55 c -2.078 0 -3.768 -1.69 -3.768 -3.769 c 0 -2.078 1.69 -3.768 3.768 -3.768 c 2.078 0 3.769 1.69 3.769 3.768 C 48.769 21.86 47.078 23.55 45 23.55 z M 45 18.014 c -0.975 0 -1.768 0.793 -1.768 1.768 S 44.025 21.55 45 21.55 s 1.769 -0.793 1.769 -1.769 S 45.975 18.014 45 18.014 z" style="stroke: none; stroke-width: 1; stroke-dasharray: none; stroke-linecap: butt; stroke-linejoin: miter; stroke-miterlimit: 10; fill: rgb(0,0,0); fill-rule: nonzero; opacity: 1;" transform=" matrix(1 0 0 1 0 0) " stroke-linecap="round" />
	<path d="M 18.564 34.297 c -0.364 0 -0.714 -0.199 -0.892 -0.545 c -0.251 -0.492 -0.056 -1.094 0.436 -1.346 l 23.982 -12.26 c 0.492 -0.25 1.094 -0.057 1.346 0.436 c 0.251 0.492 0.056 1.094 -0.436 1.346 l -23.982 12.26 C 18.873 34.262 18.717 34.297 18.564 34.297 z" style="stroke: none; stroke-width: 1; stroke-dasharray: none; stroke-linecap: butt; stroke-linejoin: miter; stroke-miterlimit: 10; fill: rgb(0,0,0); fill-rule: nonzero; opacity: 1;" transform=" matrix(1 0 0 1 0 0) " stroke-linecap="round" />
	<path d="M 71.579 34.297 c -0.153 0 -0.309 -0.035 -0.454 -0.109 L 47.03 21.87 c -0.492 -0.251 -0.687 -0.854 -0.436 -1.346 s 0.855 -0.686 1.346 -0.436 l 24.095 12.318 c 0.492 0.251 0.687 0.854 0.436 1.346 C 72.294 34.098 71.943 34.297 71.579 34.297 z" style="stroke: none; stroke-width: 1; stroke-dasharray: none; stroke-linecap: butt; stroke-linejoin: miter; stroke-miterlimit: 10; fill: rgb(0,0,0); fill-rule: nonzero; opacity: 1;" transform=" matrix(1 0 0 1 0 0) " stroke-linecap="round" />
	<path d="M 59.233 34.297 h -40.67 c -0.552 0 -1 -0.448 -1 -1 s 0.448 -1 1 -1 h 40.67 c 0.553 0 1 0.448 1 1 S 59.786 34.297 59.233 34.297 z" style="stroke: none; stroke-width: 1; stroke-dasharray: none; stroke-linecap: butt; stroke-linejoin: miter; stroke-miterlimit: 10; fill: rgb(0,0,0); fill-rule: nonzero; opacity: 1;" transform=" matrix(1 0 0 1 0 0) " stroke-linecap="round" />
	<path d="M 46.199 63.084 h -3.208 c -2.565 0 -4.652 -2.087 -4.652 -4.651 V 48.8 c 0 -2.565 2.087 -4.652 4.652 -4.652 h 3.208 c 2.565 0 4.652 2.086 4.652 4.652 v 9.633 C 50.852 60.997 48.765 63.084 46.199 63.084 z M 42.991 46.148 c -1.462 0 -2.652 1.189 -2.652 2.651 v 9.633 c 0 1.462 1.189 2.651 2.652 2.651 h 3.208 c 1.463 0 2.652 -1.189 2.652 -2.651 V 48.8 c 0 -1.462 -1.189 -2.651 -2.652 -2.651 H 42.991 z" style="stroke: none; stroke-width: 1; stroke-dasharray: none; stroke-linecap: butt; stroke-linejoin: miter; stroke-miterlimit: 10; fill: rgb(0,0,0); fill-rule: nonzero; opacity: 1;" transform=" matrix(1 0 0 1 0 0) " stroke-linecap="round" />
	<path d="M 79.525 63.084 h -7.508 c -0.553 0 -1 -0.447 -1 -1 V 45.148 c 0 -0.552 0.447 -1 1 -1 h 7.508 c 0.553 0 1 0.448 1 1 s -0.447 1 -1 1 h -6.508 v 14.936 h 6.508 c 0.553 0 1 0.447 1 1 S 80.078 63.084 79.525 63.084 z" style="stroke: none; stroke-width: 1; stroke-dasharray: none; stroke-linecap: butt; stroke-linejoin: miter; stroke-miterlimit: 10; fill: rgb(0,0,0); fill-rule: nonzero; opacity: 1;" transform=" matrix(1 0 0 1 0 0) " stroke-linecap="round" />
	<path d="M 76.929 54.616 h -4.911 c -0.553 0 -1 -0.447 -1 -1 s 0.447 -1 1 -1 h 4.911 c 0.553 0 1 0.447 1 1 S 77.481 54.616 76.929 54.616 z" style="stroke: none; stroke-width: 1; stroke-dasharray: none; stroke-linecap: butt; stroke-linejoin: miter; stroke-miterlimit: 10; fill: rgb(0,0,0); fill-rule: nonzero; opacity: 1;" transform=" matrix(1 0 0 1 0 0) " stroke-linecap="round" />
	<path d="M 17.335 63.084 h -3.209 c -2.565 0 -4.651 -2.087 -4.651 -4.651 V 48.8 c 0 -2.565 2.086 -4.652 4.651 -4.652 h 3.209 c 2.565 0 4.651 2.086 4.651 4.652 c 0 0.553 -0.448 1 -1 1 s -1 -0.447 -1 -1 c 0 -1.462 -1.189 -2.651 -2.651 -2.651 h -3.209 c -1.462 0 -2.651 1.189 -2.651 2.651 v 9.633 c 0 1.462 1.189 2.651 2.651 2.651 h 3.209 c 1.462 0 2.651 -1.189 2.651 -2.651 c 0 -0.553 0.448 -1 1 -1 s 1 0.447 1 1 C 21.986 60.997 19.9 63.084 17.335 63.084 z" style="stroke: none; stroke-width: 1; stroke-dasharray: none; stroke-linecap: butt; stroke-linejoin: miter; stroke-miterlimit: 10; fill: rgb(0,0,0); fill-rule: nonzero; opacity: 1;" transform=" matrix(1 0 0 1 0 0) " stroke-linecap="round" />
	<path d="M 35.16 63.084 h -7.508 c -0.552 0 -1 -0.447 -1 -1 V 45.148 c 0 -0.552 0.448 -1 1 -1 s 1 0.448 1 1 v 15.936 h 6.508 c 0.552 0 1 0.447 1 1 S 35.712 63.084 35.16 63.084 z" style="stroke: none; stroke-width: 1; stroke-dasharray: none; stroke-linecap: butt; stroke-linejoin: miter; stroke-miterlimit: 10; fill: rgb(0,0,0); fill-rule: nonzero; opacity: 1;" transform=" matrix(1 0 0 1 0 0) " stroke-linecap="round" />
	<path d="M 62.439 63.343 h -5.61 c -0.553 0 -1 -0.447 -1 -1 s 0.447 -1 1 -1 h 5.61 c 1.096 0 1.987 -0.891 1.987 -1.986 v -2.624 c 0 -1.096 -0.892 -1.987 -1.987 -1.987 h -3.124 c -2.198 0 -3.986 -1.788 -3.986 -3.986 v -2.624 c 0 -2.198 1.788 -3.987 3.986 -3.987 h 4.027 c 0.553 0 1 0.448 1 1 s -0.447 1 -1 1 h -4.027 c -1.096 0 -1.986 0.892 -1.986 1.987 v 2.624 c 0 1.096 0.891 1.986 1.986 1.986 h 3.124 c 2.198 0 3.987 1.789 3.987 3.987 v 2.624 C 66.427 61.555 64.638 63.343 62.439 63.343 z" style="stroke: none; stroke-width: 1; stroke-dasharray: none; stroke-linecap: butt; stroke-linejoin: miter; stroke-miterlimit: 10; fill: rgb(0,0,0); fill-rule: nonzero; opacity: 1;" transform=" matrix(1 0 0 1 0 0) " stroke-linecap="round" />
</g>
</g>
</svg>