<?xml version="1.0" encoding="iso-8859-1"?>
<!-- Generator: Adobe Illustrator 18.0.0, SVG Export Plug-In . SVG Version: 6.00 Build 0)  -->
<!DOCTYPE svg PUBLIC "-//W3C//DTD SVG 1.1//EN" "http://www.w3.org/Graphics/SVG/1.1/DTD/svg11.dtd">
<svg version="1.1" id="Capa_1" xmlns="http://www.w3.org/2000/svg" xmlns:xlink="http://www.w3.org/1999/xlink" x="0px" y="0px"
	 viewBox="0 0 360.226 360.226" style="enable-background:new 0 0 360.226 360.226;" xml:space="preserve">
<g>
	<g>
		<path d="M332.255,160.462c-1.112-6.061-3.306-11.883-7.31-17.104c-7.541-9.836-20.492-12.795-33.016-15.656
			c-7.76-1.773-15.784-3.607-21.867-6.982c-5.018-2.785-9.906-8.248-15.082-14.029c-8.138-9.092-17.361-19.396-30.42-22.439
			c-11.315-2.637-22.775,1.641-33.858,5.775c-7.88,2.941-16.027,5.98-23.128,5.98c-7.1,0-15.248-3.039-23.127-5.98
			c-11.084-4.135-22.546-8.41-33.857-5.775c-13.061,3.043-22.286,13.35-30.424,22.441c-5.175,5.781-10.063,11.242-15.082,14.029
			c-6.081,3.375-14.104,5.207-21.863,6.98c-12.525,2.863-25.477,5.822-33.017,15.658c-10.202,13.307-8.68,30.496-7.337,45.66
			c0.394,4.453,0.769,8.684,0.845,12.619c-2.003,5.318-7.398,22.482,0.299,36.125c4.383,7.768,11.9,12.846,22.379,15.139
			c5.398,13.957,18.953,23.885,34.79,23.885h261.753c20.564,0,37.295-16.73,37.295-37.295v-20.227
			C360.226,197.792,350.564,177.512,332.255,160.462z M23.885,219.266v17.084c-3.091-1.451-5.372-3.424-6.792-5.922
			c-4.448-7.828-0.784-20.256,0.995-24.363c0.419-0.953,0.636-1.982,0.636-3.021c0-4.99-0.466-10.254-0.917-15.346
			c-1.155-13.047-2.35-26.539,4.3-35.211c4.25-5.545,14.064-7.787,24.454-10.162c8.78-2.006,17.858-4.08,25.802-8.488
			c7.229-4.014,13.202-10.687,18.979-17.141c7.304-8.16,14.204-15.867,22.651-17.836c6.905-1.613,15.796,1.707,25.209,5.221
			c9.127,3.404,18.564,6.926,28.371,6.926c9.809,0,19.245-3.521,28.371-6.926c9.414-3.512,18.303-6.834,25.211-5.221
			c8.445,1.969,15.344,9.674,22.647,17.834c5.776,6.455,11.751,13.129,18.982,17.141c7.943,4.408,17.022,6.482,25.803,8.49
			c10.39,2.373,20.203,4.615,24.454,10.16c6.649,8.672,5.456,22.164,4.301,35.213c-0.45,5.092-0.917,10.355-0.917,15.346
			c0,0.855,0.147,1.703,0.434,2.51c1.721,4.844,5.412,20.398-0.004,28.07c-0.568,0.807-1.883,2.645-5.24,3.898v-18.256
			c0-27-15.365-52.17-43.265-70.873c-26.977-18.086-62.706-28.047-100.601-28.047c-37.896,0-73.624,9.961-100.601,28.047
			C39.25,167.096,23.885,192.266,23.885,219.266z M61.179,261.788c-12.293,0-22.294-10.002-22.294-22.295v-20.227
			c0-21.838,13.004-42.584,36.616-58.414c24.534-16.447,57.295-25.506,92.249-25.506s67.714,9.059,92.248,25.506
			c23.613,15.83,36.617,36.576,36.617,58.414v20.227c0,12.293-10.002,22.295-22.295,22.295H61.179z M345.226,239.493
			c0,12.293-10.002,22.295-22.295,22.295h-18.774c1.91-2.551,3.52-5.336,4.734-8.33c10.979-1.357,17.011-6.643,20.217-11.184
			c9.77-13.838,4.186-34.602,2.327-40.42c0.065-3.996,0.446-8.301,0.848-12.834c0.163-1.844,0.329-3.717,0.476-5.609
			c8.196,11.154,12.467,23.318,12.467,35.855V239.493z"/>
		<path d="M73.577,194.479c-1.97,0-3.91,0.801-5.31,2.189c-1.39,1.4-2.19,3.33-2.19,5.311c0,1.971,0.8,3.9,2.19,5.301
			c1.4,1.398,3.34,2.199,5.31,2.199c1.97,0,3.91-0.801,5.3-2.199c1.4-1.4,2.2-3.33,2.2-5.301c0-1.98-0.8-3.91-2.2-5.311
			C77.487,195.28,75.547,194.479,73.577,194.479z"/>
		<path d="M261.928,194.479c-1.98,0-3.91,0.801-5.311,2.189c-1.39,1.4-2.189,3.33-2.189,5.311c0,1.98,0.8,3.91,2.189,5.301
			c1.4,1.398,3.33,2.199,5.311,2.199c1.97,0,3.899-0.801,5.3-2.199c1.399-1.4,2.2-3.33,2.2-5.301c0-1.98-0.801-3.91-2.2-5.311
			C265.827,195.28,263.897,194.479,261.928,194.479z"/>
		<path d="M199.136,194.479c-1.969,0-3.899,0.801-5.299,2.189c-1.4,1.4-2.201,3.33-2.201,5.311c0,1.971,0.801,3.9,2.201,5.301
			c1.399,1.398,3.33,2.199,5.299,2.199c1.98,0,3.91-0.801,5.311-2.199c1.391-1.4,2.189-3.33,2.189-5.301
			c0-1.98-0.799-3.91-2.189-5.311C203.047,195.28,201.117,194.479,199.136,194.479z"/>
		<path d="M136.357,194.479c-1.971,0-3.91,0.801-5.3,2.189c-1.4,1.4-2.2,3.33-2.2,5.311c0,1.971,0.8,3.9,2.2,5.301
			c1.39,1.398,3.33,2.199,5.3,2.199c1.98,0,3.91-0.801,5.3-2.199c1.4-1.391,2.2-3.33,2.2-5.301c0-1.98-0.801-3.91-2.2-5.311
			C140.267,195.28,138.327,194.479,136.357,194.479z"/>
		<path d="M167.748,157.678c-1.971,0-3.9,0.801-5.301,2.201c-1.4,1.389-2.199,3.32-2.199,5.299c0,1.971,0.799,3.91,2.199,5.301
			c1.391,1.4,3.33,2.199,5.301,2.199c1.98,0,3.909-0.799,5.299-2.199c1.4-1.4,2.201-3.33,2.201-5.301
			c0-1.969-0.801-3.91-2.201-5.299C171.657,158.479,169.717,157.678,167.748,157.678z"/>
		<path d="M167.748,231.268c-1.971,0-3.91,0.801-5.301,2.201c-1.4,1.4-2.199,3.33-2.199,5.311c0,1.969,0.799,3.898,2.199,5.299
			c1.4,1.4,3.33,2.201,5.301,2.201c1.969,0,3.899-0.801,5.309-2.201c1.391-1.4,2.191-3.33,2.191-5.299
			c0-1.981-0.801-3.91-2.191-5.311C171.657,232.069,169.717,231.268,167.748,231.268z"/>
		<path d="M112.067,157.678c-1.97,0-3.9,0.801-5.3,2.201c-1.4,1.389-2.2,3.32-2.2,5.299c0,1.971,0.8,3.91,2.2,5.301
			c1.4,1.4,3.33,2.199,5.3,2.199c1.97,0,3.91-0.799,5.31-2.199c1.39-1.391,2.19-3.33,2.19-5.301c0-1.979-0.8-3.91-2.19-5.299
			C115.977,158.479,114.037,157.678,112.067,157.678z"/>
		<path d="M112.067,231.268c-1.97,0-3.9,0.801-5.3,2.201c-1.4,1.4-2.2,3.33-2.2,5.311c0,1.969,0.8,3.908,2.2,5.299
			c1.4,1.4,3.33,2.201,5.3,2.201c1.97,0,3.91-0.801,5.31-2.201c1.39-1.4,2.19-3.33,2.19-5.299c0-1.981-0.8-3.91-2.19-5.311
			C115.977,232.069,114.037,231.268,112.067,231.268z"/>
		<path d="M223.428,157.678c-1.971,0-3.9,0.801-5.301,2.201c-1.399,1.389-2.199,3.32-2.199,5.299c0,1.971,0.8,3.91,2.199,5.301
			c1.4,1.4,3.33,2.199,5.301,2.199c1.979,0,3.91-0.799,5.309-2.199c1.39-1.391,2.191-3.33,2.191-5.301
			c0-1.979-0.801-3.91-2.191-5.299C227.338,158.479,225.397,157.678,223.428,157.678z"/>
		<path d="M223.428,231.268c-1.971,0-3.9,0.801-5.301,2.201c-1.399,1.4-2.199,3.33-2.199,5.311c0,1.969,0.8,3.898,2.199,5.299
			c1.4,1.4,3.33,2.201,5.301,2.201c1.97,0,3.91-0.801,5.3-2.201c1.399-1.4,2.2-3.33,2.2-5.299c0-1.981-0.801-3.91-2.2-5.311
			C227.338,232.069,225.407,231.268,223.428,231.268z"/>
	</g>
</g>
<g>
</g>
<g>
</g>
<g>
</g>
<g>
</g>
<g>
</g>
<g>
</g>
<g>
</g>
<g>
</g>
<g>
</g>
<g>
</g>
<g>
</g>
<g>
</g>
<g>
</g>
<g>
</g>
<g>
</g>
</svg>
